<?xml version="1.0" encoding="iso-8859-1"?>
<!-- Generator: Adobe Illustrator 19.0.0, SVG Export Plug-In . SVG Version: 6.00 Build 0)  -->
<svg version="1.1" id="Layer_1" xmlns="http://www.w3.org/2000/svg" xmlns:xlink="http://www.w3.org/1999/xlink" x="0px" y="0px"
	 viewBox="0 0 512 512" style="enable-background:new 0 0 512 512;" xml:space="preserve">
<path style="fill:#A7A9AC;" d="M256,418.315c-9.024,0-16.34-7.316-16.34-16.34V358.4c0-9.024,7.316-16.34,16.34-16.34
	c9.024,0,16.34,7.316,16.34,16.34v43.574C272.34,410.999,265.024,418.315,256,418.315z"/>
<path style="fill:#808285;" d="M256,342.06v76.255c9.024,0,16.34-7.316,16.34-16.34V358.4C272.34,349.376,265.024,342.06,256,342.06
	z"/>
<path style="fill:#B9F7F9;" d="M256,483.677c-24.027,0-43.574-19.547-43.574-43.574c0-24.027,19.548-43.574,43.574-43.574
	s43.574,19.548,43.574,43.574C299.574,464.129,280.027,483.677,256,483.677z"/>
<path style="fill:#FFDB2D;" d="M465.157,374.74H46.843c-9.024,0-16.34-7.316-16.34-16.34V44.664c0-9.024,7.316-16.34,16.34-16.34
	h418.315c9.024,0,16.34,7.316,16.34,16.34V358.4C481.498,367.424,474.182,374.74,465.157,374.74z"/>
<g>
	<path style="fill:#FF9900;" d="M465.157,28.323H256V374.74h209.157c9.024,0,16.34-7.316,16.34-16.34V44.664
		C481.498,35.64,474.182,28.323,465.157,28.323z"/>
	<path style="fill:#FF9900;" d="M167.762,345.328h-46.843c-9.024,0-16.34-7.316-16.34-16.34v-74.077
		c0-9.024,7.316-16.34,16.34-16.34h46.843c9.024,0,16.34,7.316,16.34,16.34v74.077C184.102,338.012,176.786,345.328,167.762,345.328
		z"/>
	<path style="fill:#FF9900;" d="M279.966,344.238h-46.843c-9.024,0-16.34-7.316-16.34-16.34V180.834
		c0-9.024,7.316-16.34,16.34-16.34h46.843c9.024,0,16.34,7.316,16.34,16.34v147.064C296.306,336.922,288.99,344.238,279.966,344.238
		z"/>
</g>
<path style="fill:#FF4F19;" d="M279.966,164.494H256v179.745h23.966c9.024,0,16.34-7.316,16.34-16.34V180.834
	C296.306,171.81,288.99,164.494,279.966,164.494z"/>
<path style="fill:#A7A9AC;" d="M495.66,61.004H16.34C7.316,61.004,0,53.688,0,44.664s7.316-16.34,16.34-16.34H495.66
	c9.024,0,16.34,7.316,16.34,16.34S504.684,61.004,495.66,61.004z"/>
<path style="fill:#00D8E0;" d="M256,396.528v87.149c24.027,0,43.574-19.547,43.574-43.574
	C299.574,416.075,280.027,396.528,256,396.528z"/>
<path style="fill:#FF4F19;" d="M392.17,344.238h-46.843c-9.024,0-16.34-7.316-16.34-16.34v-221.14c0-9.024,7.316-16.34,16.34-16.34
	h46.843c9.024,0,16.34,7.316,16.34,16.34v221.14C408.511,336.922,401.194,344.238,392.17,344.238z"/>
<path style="fill:#808285;" d="M495.66,28.323H256v32.681h239.66c9.024,0,16.34-7.316,16.34-16.34S504.684,28.323,495.66,28.323z"/>
<g>
</g>
<g>
</g>
<g>
</g>
<g>
</g>
<g>
</g>
<g>
</g>
<g>
</g>
<g>
</g>
<g>
</g>
<g>
</g>
<g>
</g>
<g>
</g>
<g>
</g>
<g>
</g>
<g>
</g>
</svg>
